#N canvas -9 -9 1920 1026 12;
#X floatatom 173 106 5 0 0 0 - - -;
#X text 125 32 Big Blue;
#X floatatom 574 94 5 0 0 0 - - -;
#X floatatom 679 92 5 0 0 0 - - -;
#X text 710 27 PVC;
#X floatatom 978 104 5 0 0 0 - - -;
#X floatatom 1075 93 5 0 0 0 - - -;
#X text 1084 26 Wind Chimes;
#X floatatom 1267 110 5 0 0 0 - - -;
#X floatatom 1315 91 5 0 0 0 - - -;
#X text 1295 25 Expr;
#X obj 126 66 notein 4;
#X obj 612 487 noteout 2;
#X obj 1027 445 noteout 0;
#X floatatom 1576 92 5 0 0 0 - - -;
#X obj 1560 54 notein;
#X floatatom 1623 74 5 0 0 0 - - -;
#X obj 619 60 notein 19;
#X obj 1011 61 notein 34;
#X floatatom 1529 91 5 0 0 0 - - -;
#X obj 1295 329 noteout 4;
#X obj 1255 59 notein 49;
#X floatatom 106 112 5 0 0 0 - - -;
#X floatatom 228 146 5 0 0 0 - - -;
#X obj 276 352 print z;
#X obj 224 217 t b f;
#X obj 123 235 f;
#X obj 265 397 print z1;
#X obj 91 326 select 1;
#X obj 243 464 print z3;
#X obj 60 438 print z2;
#X obj 147 478 noteout 3;
#X obj 122 272 expr $f1==100 && $f2!=0 \; $f1==101 && $f2!=0;
#X obj 165 325 select 1;
#X msg 112 379 100;
#X msg 186 378 101;
#X obj 676 208 t b f;
#X obj 575 226 f;
#X obj 505 369 select 1;
#X obj 579 368 select 1;
#X obj 653 369 select 1;
#X obj 727 368 select 1;
#X msg 514 401 85;
#X msg 588 400 89;
#X msg 662 401 92;
#X msg 736 400 97;
#X obj 1062 171 t b f;
#X obj 961 189 f;
#X obj 891 332 select 1;
#X obj 965 331 select 1;
#X obj 1039 332 select 1;
#X obj 1113 331 select 1;
#X obj 574 263 expr $f1==85 && $f2!=0 \; $f1==89 && $f2!=0 \; $f1==92
&& $f2!=0 \; $f1==97 && $f2!=0 \;;
#X msg 900 364 80;
#X msg 974 363 85;
#X msg 1048 364 89;
#X msg 1122 363 92;
#X obj 960 226 expr $f1==80 && $f2!=0 \; $f1==85 && $f2!=0 \; $f1==89
&& $f2!=0 \; $f1==92 && $f2!=0 \;;
#X connect 0 0 25 0;
#X connect 2 0 37 0;
#X connect 3 0 36 0;
#X connect 5 0 47 0;
#X connect 6 0 46 0;
#X connect 11 0 22 0;
#X connect 11 1 0 0;
#X connect 15 0 19 0;
#X connect 15 1 14 0;
#X connect 15 2 16 0;
#X connect 17 0 2 0;
#X connect 17 1 3 0;
#X connect 18 0 5 0;
#X connect 18 1 6 0;
#X connect 21 0 8 0;
#X connect 21 0 20 0;
#X connect 21 1 9 0;
#X connect 21 1 20 1;
#X connect 22 0 26 0;
#X connect 25 0 26 0;
#X connect 25 1 32 1;
#X connect 26 0 24 0;
#X connect 26 0 32 0;
#X connect 28 0 30 0;
#X connect 28 0 34 0;
#X connect 32 0 27 0;
#X connect 32 0 28 0;
#X connect 32 1 33 0;
#X connect 33 0 35 0;
#X connect 34 0 31 0;
#X connect 35 0 31 0;
#X connect 36 0 37 0;
#X connect 36 1 52 1;
#X connect 37 0 52 0;
#X connect 38 0 42 0;
#X connect 39 0 43 0;
#X connect 40 0 44 0;
#X connect 41 0 45 0;
#X connect 42 0 12 0;
#X connect 43 0 12 0;
#X connect 44 0 12 0;
#X connect 45 0 12 0;
#X connect 46 0 47 0;
#X connect 46 1 57 1;
#X connect 47 0 57 0;
#X connect 48 0 53 0;
#X connect 49 0 54 0;
#X connect 50 0 55 0;
#X connect 51 0 56 0;
#X connect 52 0 38 0;
#X connect 52 1 39 0;
#X connect 52 2 40 0;
#X connect 52 3 41 0;
#X connect 53 0 13 0;
#X connect 54 0 13 0;
#X connect 55 0 13 0;
#X connect 56 0 13 0;
#X connect 57 0 48 0;
#X connect 57 1 49 0;
#X connect 57 2 50 0;
#X connect 57 3 51 0;
