#N canvas -8 0 958 1008 12;
#X text 677 -6 PVC;
#X text 948 -13 Wind Chimes;
#X text 1391 -11 Expr;
#X obj 1721 29 notein 1;
#X obj 1811 28 notein 2;
#X floatatom 1648 267 5 0 0 0 - - -;
#X obj 1767 75 bng 15 250 50 0 empty empty empty 17 7 0 10 -262144
-1 -1;
#X obj 1619 86 t b f;
#X floatatom 1566 111 5 0 0 0 - - -;
#X obj 1612 131 print;
#X obj 1657 122 expr $f1+1;
#X floatatom 1731 157 5 0 0 0 - - -;
#X obj 1552 206 t b f;
#X floatatom 1584 238 5 0 0 0 - - -;
#X obj 1813 73 bng 15 250 50 0 empty empty empty 17 7 0 10 -262144
-1 -1;
#X obj 1924 58 t b f;
#X floatatom 1871 83 5 0 0 0 - - -;
#X obj 1917 103 print;
#X obj 1962 94 expr $f1+1;
#X floatatom 1791 159 5 0 0 0 - - -;
#X obj 1857 178 t b f;
#X floatatom 1908 207 5 0 0 0 - - -;
#X obj 1708 242 expr ($f1 == 1 && $f2==1);
#X obj 1564 173 delay 200 1 msec;
#X obj 1869 145 delay 200 1 msec;
#X obj 1733 297 noteout 5;
#X obj 1684 305 100;
#X obj 367 89 bng 15 250 50 0 empty empty empty 17 7 0 10 -262144 -1
-1;
#X obj 663 71 bng 15 250 50 0 empty empty empty 17 7 0 10 -262144 -1
-1;
#X obj 1005 89 bng 15 250 50 0 empty empty empty 17 7 0 10 -262144
-1 -1;
#X obj 1399 81 bng 15 250 50 0 empty empty empty 17 7 0 10 -262144
-1 -1;
#X floatatom 118 310 5 0 0 0 - - -;
#X obj 178 75 t b f;
#X floatatom 125 100 5 0 0 0 - - -;
#X obj 216 111 expr $f1+1;
#X floatatom 290 146 5 0 0 0 - - -;
#X obj 111 195 t b f;
#X floatatom 143 227 5 0 0 0 - - -;
#X obj 246 485 noteout 5;
#X obj 217 447 100;
#X floatatom 665 270 5 0 0 0 - - -;
#X obj 788 94 t b f;
#X floatatom 735 119 5 0 0 0 - - -;
#X obj 826 130 expr $f1+1;
#X floatatom 900 165 5 0 0 0 - - -;
#X obj 677 175 t b f;
#X obj 758 435 noteout 5;
#X floatatom 1116 289 5 0 0 0 - - -;
#X obj 1176 264 expr ($f1 == 1 && $f2==1);
#X obj 1198 445 noteout 5;
#X obj 512 91 t b f;
#X floatatom 459 116 5 0 0 0 - - -;
#X obj 550 127 expr $f1+1;
#X obj 445 211 t b f;
#X floatatom 508 240 5 0 0 0 - - -;
#X floatatom 377 139 5 0 0 0 - - -;
#X obj 1228 77 t b f;
#X floatatom 1175 102 5 0 0 0 - - -;
#X obj 1266 113 expr $f1+1;
#X obj 1161 197 t b f;
#X floatatom 1224 226 5 0 0 0 - - -;
#X floatatom 1087 129 5 0 0 0 - - -;
#X text 916 147 *;
#X text 1088 110 *;
#X text 295 124 *;
#X text 358 124 *;
#X text 1676 3 Template;
#X floatatom 151 598 5 0 0 0 - - -;
#X obj 211 573 expr ($f1 == 1 && $f2==1);
#X floatatom 105 951 5 0 0 0 - - -;
#X obj 165 926 expr ($f1 == 1 && $f2==1);
#X obj 177 1135 noteout 5;
#X floatatom 659 551 5 0 0 0 - - -;
#X obj 720 719 noteout 5;
#X text 318 4 BB;
#X obj 699 417 103;
#X obj 160 1102 102;
#X obj 1155 432 105;
#X obj 692 696 104;
#X obj 1743 396 notein;
#X floatatom 1713 441 5 0 0 0 - - -;
#X floatatom 1760 440 5 0 0 0 - - -;
#X floatatom 1803 441 5 0 0 0 - - -;
#X obj 321 43 notein 4;
#X obj 661 38 notein 19;
#X obj 959 43 notein 34;
#X obj 1397 36 notein 49;
#X obj 719 526 expr ($f1 == 19 && $f2==1 && $f3==1);
#X obj 701 218 f;
#X obj 890 199 t b f;
#X obj 248 236 f;
#X obj 398 240 t b f;
#X obj 724 243 expr ($f1 == 1 && $f2==1);
#X obj 203 541 f;
#X obj 361 540 t b f;
#X obj 709 497 f;
#X obj 961 494 t b f;
#X obj 1141 232 f;
#X obj 1327 237 t b f;
#X obj 165 883 f;
#X obj 321 882 t b f;
#X obj 243 283 expr $f1 == 1 && $f2==1;
#X floatatom 255 336 5 0 0 0 - - -;
#X obj 243 311 f;
#X obj 163 392 print x1;
#X obj 251 369 select 1;
#X obj 327 403 print x2;
#X obj 87 363 print x0;
#X obj 162 482 print x3;
#X obj 214 778 noteout 5;
#X floatatom 223 629 5 0 0 0 - - -;
#X obj 211 604 f;
#X obj 219 662 select 1;
#X obj 214 713 t b f;
#X obj 185 740 101;
#X floatatom 179 986 5 0 0 0 - - -;
#X obj 167 961 f;
#X obj 175 1019 select 1;
#X obj 170 1070 t b f;
#X floatatom 731 585 5 0 0 0 - - -;
#X obj 719 560 f;
#X obj 727 618 select 1;
#X obj 722 669 t b f;
#X floatatom 736 299 5 0 0 0 - - -;
#X obj 724 274 f;
#X obj 732 332 select 1;
#X obj 727 383 t b f;
#X floatatom 1197 321 5 0 0 0 - - -;
#X obj 1185 296 f;
#X obj 1193 354 select 1;
#X obj 1188 405 t b f;
#X text 1707 376 TEST;
#X obj 733 181 delay 10 1 msec;
#X obj 123 162 delay 5 1 msec;
#X obj 454 163 delay 5 1 msec;
#X obj 1173 164 delay 5 1 msec;
#X obj 51 422 bng 15 250 50 0 empty empty empty 17 7 0 10 -262144 -1
-1;
#X obj 51 442 100;
#X obj 44 484 print x5;
#X connect 3 1 6 0;
#X connect 4 1 14 0;
#X connect 6 0 7 0;
#X connect 6 0 23 0;
#X connect 7 0 8 0;
#X connect 7 1 9 0;
#X connect 7 1 10 0;
#X connect 10 0 11 0;
#X connect 11 0 22 0;
#X connect 12 1 13 0;
#X connect 12 1 11 0;
#X connect 14 0 15 0;
#X connect 14 0 24 0;
#X connect 15 0 16 0;
#X connect 15 1 17 0;
#X connect 15 1 18 0;
#X connect 18 0 19 0;
#X connect 19 0 22 1;
#X connect 20 1 19 0;
#X connect 20 1 21 0;
#X connect 22 0 5 0;
#X connect 22 0 25 0;
#X connect 23 0 12 0;
#X connect 24 0 20 0;
#X connect 26 0 25 0;
#X connect 27 0 32 0;
#X connect 27 0 133 0;
#X connect 28 0 50 0;
#X connect 28 0 134 0;
#X connect 29 0 41 0;
#X connect 29 0 132 0;
#X connect 30 0 56 0;
#X connect 30 0 135 0;
#X connect 32 0 33 0;
#X connect 32 1 34 0;
#X connect 34 0 35 0;
#X connect 35 0 90 0;
#X connect 35 0 93 0;
#X connect 35 0 99 0;
#X connect 36 1 37 0;
#X connect 36 1 35 0;
#X connect 39 0 38 0;
#X connect 39 0 108 0;
#X connect 41 0 42 0;
#X connect 41 1 43 0;
#X connect 43 0 44 0;
#X connect 44 0 89 0;
#X connect 44 0 94 0;
#X connect 44 0 97 0;
#X connect 45 1 44 0;
#X connect 48 0 47 0;
#X connect 48 0 128 0;
#X connect 50 0 51 0;
#X connect 50 1 52 0;
#X connect 52 0 55 0;
#X connect 53 1 54 0;
#X connect 53 1 55 0;
#X connect 55 0 91 0;
#X connect 55 0 95 0;
#X connect 55 0 88 0;
#X connect 56 0 57 0;
#X connect 56 1 58 0;
#X connect 58 0 61 0;
#X connect 59 1 60 0;
#X connect 59 1 61 0;
#X connect 61 0 100 0;
#X connect 61 0 96 0;
#X connect 61 0 98 0;
#X connect 68 0 67 0;
#X connect 68 0 111 0;
#X connect 70 0 69 0;
#X connect 70 0 116 0;
#X connect 75 0 46 0;
#X connect 76 0 71 0;
#X connect 77 0 49 0;
#X connect 78 0 73 0;
#X connect 79 0 80 0;
#X connect 79 1 81 0;
#X connect 79 2 82 0;
#X connect 83 1 27 0;
#X connect 84 1 28 0;
#X connect 85 1 29 0;
#X connect 86 1 30 0;
#X connect 87 0 72 0;
#X connect 87 0 120 0;
#X connect 88 0 92 0;
#X connect 89 0 88 0;
#X connect 89 1 92 1;
#X connect 90 0 101 0;
#X connect 91 0 90 0;
#X connect 91 1 101 1;
#X connect 92 0 40 0;
#X connect 92 0 124 0;
#X connect 93 0 68 0;
#X connect 94 0 93 0;
#X connect 94 1 68 1;
#X connect 95 0 87 0;
#X connect 96 0 95 0;
#X connect 96 1 87 2;
#X connect 97 0 48 0;
#X connect 98 0 97 0;
#X connect 98 1 48 1;
#X connect 99 0 70 0;
#X connect 100 0 99 0;
#X connect 100 1 70 1;
#X connect 101 0 31 0;
#X connect 101 0 103 0;
#X connect 102 0 105 0;
#X connect 103 0 102 0;
#X connect 103 0 107 0;
#X connect 105 0 104 0;
#X connect 105 0 39 0;
#X connect 105 1 106 0;
#X connect 110 0 112 0;
#X connect 111 0 110 0;
#X connect 112 0 113 0;
#X connect 113 0 114 0;
#X connect 114 0 109 0;
#X connect 114 0 138 0;
#X connect 115 0 117 0;
#X connect 116 0 115 0;
#X connect 117 0 118 0;
#X connect 118 0 76 0;
#X connect 119 0 121 0;
#X connect 120 0 119 0;
#X connect 121 0 122 0;
#X connect 122 0 78 0;
#X connect 123 0 125 0;
#X connect 124 0 123 0;
#X connect 125 0 126 0;
#X connect 126 0 75 0;
#X connect 127 0 129 0;
#X connect 128 0 127 0;
#X connect 129 0 130 0;
#X connect 130 0 77 0;
#X connect 132 0 45 0;
#X connect 133 0 36 0;
#X connect 134 0 53 0;
#X connect 135 0 59 0;
#X connect 136 0 137 0;
#X connect 137 0 138 0;
