#N canvas -9 -9 1920 1026 12;
#X obj 125 62 notein 1;
#X obj 329 56 notein 2;
#X floatatom 83 96 5 0 0 0 - - -;
#X floatatom 175 97 5 0 0 0 - - -;
#X floatatom 331 96 5 0 0 0 - - -;
#X floatatom 389 88 5 0 0 0 - - -;
#X floatatom 80 231 5 0 0 0 - - -;
#X obj 78 129 bng 15 250 50 0 empty empty empty 17 7 0 10 -262144 -1
-1;
#X obj 341 124 bng 15 250 50 0 empty empty empty 17 7 0 10 -262144
-1 -1;
#X obj 73 158 t b b;
#X obj 74 191 timer;
#X floatatom 386 220 5 0 0 0 - - -;
#X obj 379 147 t b b;
#X obj 380 180 timer;
#X obj 209 467 tabwrite tempo_sim;
#X obj 480 41 table tempo_sim;
#X msg 377 449 50;
#X obj 200 310 expr ($f1-$f2);
#X obj 200 340 abs;
#X obj 198 383 expr if ($f1<50 \, 1 \, 0);
#X floatatom 868 116 5 0 0 0 - - -;
#X floatatom 916 97 5 0 0 0 - - -;
#X text 816 67 80;
#X text 807 247 89;
#X text 923 27 Wind Chimes;
#X floatatom 1196 110 5 0 0 0 - - -;
#X floatatom 1267 102 5 0 0 0 - - -;
#X text 1328 36 PVC;
#X text 1255 33 Chnl19;
#X obj 1237 69 notein 19;
#X floatatom 813 535 5 0 0 0 - - -;
#X obj 811 433 bng 15 250 50 0 empty empty empty 17 7 0 10 -262144
-1 -1;
#X obj 1074 428 bng 15 250 50 0 empty empty empty 17 7 0 10 -262144
-1 -1;
#X obj 807 495 timer;
#X floatatom 1119 524 5 0 0 0 - - -;
#X obj 1112 451 t b b;
#X obj 1113 484 timer;
#X obj 210 570 tabwrite tempo_sim;
#X msg 378 552 50;
#X text 226 533 Debug Table;
#X floatatom 909 864 5 0 0 0 - - -;
#X obj 910 1009 noteout 7;
#X text 216 651 Counter Reset;
#X obj 128 711 realtime;
#X msg 130 794 0;
#X obj 149 753 expr $f1 > 2000;
#X obj 124 666 bng 15 250 50 0 empty empty empty 17 7 0 10 -262144
-1 -1;
#X obj 157 667 bng 15 250 50 0 empty empty empty 17 7 0 10 -262144
-1 -1;
#X floatatom 80 782 5 0 0 0 - - -;
#X text 109 680 Reset;
#X text 157 694 Event Timer;
#X obj 655 646 realtime;
#X msg 657 729 0;
#X obj 676 688 expr $f1 > 2000;
#X obj 651 601 bng 15 250 50 0 empty empty empty 17 7 0 10 -262144
-1 -1;
#X obj 684 602 bng 15 250 50 0 empty empty empty 17 7 0 10 -262144
-1 -1;
#X floatatom 607 717 5 0 0 0 - - -;
#X text 636 615 Reset;
#X text 684 629 Event Timer;
#X floatatom 873 722 5 0 0 0 - - -;
#X obj 806 462 t b b;
#X text 579 392 Issue with operating on Right side \, triggering bangs
only occurs left.;
#X floatatom 1729 113 5 0 0 0 - - -;
#X text 1681 39 Big Blue;
#X floatatom 1641 113 5 0 0 0 - - -;
#X text 1951 72 Chnl20;
#X text 1610 83 100;
#X obj 1372 417 bng 15 250 50 0 empty empty empty 17 7 0 10 -262144
-1 -1;
#X floatatom 1417 513 5 0 0 0 - - -;
#X obj 1410 440 t b b;
#X obj 1411 473 timer;
#X obj 1223 754 abs;
#X floatatom 1197 837 5 0 0 0 - - -;
#X obj 1204 1007 noteout 7;
#X floatatom 1174 737 5 0 0 0 - - -;
#X obj 1245 686 -;
#X obj 1669 433 bng 15 250 50 0 empty empty empty 17 7 0 10 -262144
-1 -1;
#X floatatom 1714 529 5 0 0 0 - - -;
#X obj 1707 456 t b b;
#X obj 1708 489 timer;
#X obj 1520 770 abs;
#X floatatom 1504 856 5 0 0 0 - - -;
#X floatatom 1471 753 5 0 0 0 - - -;
#X obj 1542 702 -;
#X obj 1886 451 bng 15 250 50 0 empty empty empty 17 7 0 10 -262144
-1 -1;
#X floatatom 1931 547 5 0 0 0 - - -;
#X obj 1924 474 t b b;
#X obj 1925 507 timer;
#X obj 1778 765 abs;
#X floatatom 1752 848 5 0 0 0 - - -;
#X floatatom 1729 748 5 0 0 0 - - -;
#X obj 1800 697 -;
#X obj 1755 1005 noteout 7;
#X obj 916 660 f;
#X obj 970 659 t b f;
#X obj 1216 654 f;
#X obj 1270 653 t b f;
#X obj 1493 664 f;
#X obj 1554 665 t b f;
#X obj 1766 668 f;
#X obj 1820 667 t b f;
#X obj 1519 1007 noteout 7;
#X obj 1095 868 delay 10 1 msec;
#X obj 1105 904 t b f;
#X obj 1368 866 delay 10 1 msec;
#X obj 1378 902 t b f;
#X obj 1631 867 delay 10 1 msec;
#X obj 1641 903 t b f;
#X obj 856 65 notein 34;
#X obj 1682 73 notein 4;
#X obj 910 904 select 1;
#X obj 920 953 t b f;
#X obj 868 977 100;
#X obj 1185 904 select 1;
#X obj 1195 952 t b f;
#X obj 1143 977 100;
#X obj 1482 909 select 1;
#X obj 1492 957 t b f;
#X obj 1440 982 100;
#X obj 1734 903 select 1;
#X obj 1744 951 t b f;
#X obj 1692 976 100;
#X floatatom 991 981 5 0 0 0 - - -;
#X obj 915 837 f;
#X obj 923 808 expr (abs($f1-$f2))<10;
#X obj 1221 797 expr $f1<10;
#X obj 1518 813 expr $f1<10;
#X obj 1776 808 expr $f1<10;
#X connect 0 0 2 0;
#X connect 0 1 3 0;
#X connect 1 0 4 0;
#X connect 1 1 5 0;
#X connect 2 0 7 0;
#X connect 4 0 8 0;
#X connect 6 0 17 0;
#X connect 7 0 9 0;
#X connect 8 0 12 0;
#X connect 9 0 10 0;
#X connect 9 1 10 1;
#X connect 10 0 6 0;
#X connect 11 0 17 1;
#X connect 12 0 13 0;
#X connect 12 1 13 1;
#X connect 13 0 11 0;
#X connect 16 0 14 1;
#X connect 17 0 18 0;
#X connect 18 0 19 0;
#X connect 19 0 14 0;
#X connect 20 0 31 0;
#X connect 25 0 32 0;
#X connect 29 0 25 0;
#X connect 29 1 26 0;
#X connect 30 0 93 0;
#X connect 31 0 60 0;
#X connect 32 0 35 0;
#X connect 33 0 30 0;
#X connect 34 0 94 0;
#X connect 34 0 95 0;
#X connect 34 0 97 0;
#X connect 35 0 36 0;
#X connect 35 1 36 1;
#X connect 36 0 34 0;
#X connect 38 0 37 1;
#X connect 40 0 110 0;
#X connect 43 0 45 0;
#X connect 45 0 44 0;
#X connect 45 0 48 0;
#X connect 46 0 43 0;
#X connect 47 0 43 1;
#X connect 51 0 53 0;
#X connect 53 0 52 0;
#X connect 53 0 56 0;
#X connect 54 0 51 0;
#X connect 55 0 51 1;
#X connect 60 0 33 0;
#X connect 60 1 33 1;
#X connect 64 0 76 0;
#X connect 64 0 67 0;
#X connect 64 0 84 0;
#X connect 67 0 69 0;
#X connect 68 0 96 0;
#X connect 69 0 70 0;
#X connect 69 1 70 1;
#X connect 70 0 68 0;
#X connect 71 0 125 0;
#X connect 72 0 113 0;
#X connect 75 0 71 0;
#X connect 75 0 74 0;
#X connect 76 0 78 0;
#X connect 77 0 98 0;
#X connect 78 0 79 0;
#X connect 78 1 79 1;
#X connect 79 0 77 0;
#X connect 80 0 126 0;
#X connect 81 0 116 0;
#X connect 83 0 80 0;
#X connect 83 0 82 0;
#X connect 84 0 86 0;
#X connect 85 0 100 0;
#X connect 86 0 87 0;
#X connect 86 1 87 1;
#X connect 87 0 85 0;
#X connect 88 0 127 0;
#X connect 89 0 119 0;
#X connect 91 0 88 0;
#X connect 91 0 90 0;
#X connect 93 0 124 0;
#X connect 94 0 93 0;
#X connect 94 1 124 1;
#X connect 95 0 75 0;
#X connect 96 0 95 0;
#X connect 96 1 75 1;
#X connect 97 0 83 0;
#X connect 98 0 97 0;
#X connect 98 1 83 1;
#X connect 99 0 91 0;
#X connect 100 0 99 0;
#X connect 100 1 91 1;
#X connect 102 0 103 0;
#X connect 103 1 72 0;
#X connect 104 0 105 0;
#X connect 105 1 81 0;
#X connect 106 0 107 0;
#X connect 107 1 89 0;
#X connect 108 0 20 0;
#X connect 108 1 21 0;
#X connect 109 0 64 0;
#X connect 109 1 62 0;
#X connect 110 0 111 0;
#X connect 111 0 112 0;
#X connect 111 1 122 0;
#X connect 112 0 41 0;
#X connect 113 0 114 0;
#X connect 114 0 115 0;
#X connect 115 0 73 0;
#X connect 116 0 117 0;
#X connect 117 0 118 0;
#X connect 118 0 101 0;
#X connect 119 0 120 0;
#X connect 120 0 121 0;
#X connect 121 0 92 0;
#X connect 123 0 40 0;
#X connect 124 0 123 0;
#X connect 125 0 72 0;
#X connect 125 0 102 0;
#X connect 126 0 81 0;
#X connect 126 0 104 0;
#X connect 127 0 89 0;
#X connect 127 0 106 0;
