#N canvas -9 -9 1920 1026 12;
#X text 867 -459 PVC;
#X text 1516 -464 Wind Chimes;
#X text 2324 -483 Expr;
#X text 308 -447 BB;
#X obj 303 -418 notein 4;
#X obj 850 -429 notein 19;
#X text 223 -360 Red;
#X text 355 -359 Blue;
#X floatatom 176 -380 5 0 0 0 - - -;
#X obj 60 -311 t b f;
#X obj 72 -344 delay 5 1 msec;
#X floatatom 396 -378 5 0 0 0 - - -;
#X obj 525 -323 t b f;
#X obj 478 -367 delay 5 1 msec;
#X obj 199 -334 select 101;
#X obj 170 -300 t b f;
#X obj 392 -331 select 100;
#X obj 417 -303 t b f;
#X obj 173 -267 expr $f1+1;
#X obj 415 -270 expr $f1+1;
#X floatatom 241 -226 5 0 0 0 - - -;
#X floatatom 350 -226 5 0 0 0 - - -;
#X obj 59 -194 t b f;
#X obj 71 -227 delay 5 1 msec;
#X obj 451 -195 t b f;
#X obj 410 -228 delay 5 1 msec;
#X text 251 -252 *;
#X text 347 -256 *;
#X floatatom 721 -388 5 0 0 0 - - -;
#X obj 605 -319 t b f;
#X obj 617 -352 delay 5 1 msec;
#X obj 715 -308 t b f;
#X obj 718 -275 expr $f1+1;
#X floatatom 786 -234 5 0 0 0 - - -;
#X obj 604 -202 t b f;
#X obj 616 -235 delay 5 1 msec;
#X text 796 -260 *;
#X floatatom 962 -399 5 0 0 0 - - -;
#X obj 846 -330 t b f;
#X obj 858 -363 delay 5 1 msec;
#X obj 956 -319 t b f;
#X obj 959 -286 expr $f1+1;
#X floatatom 976 -201 5 0 0 0 - - -;
#X obj 845 -213 t b f;
#X obj 857 -246 delay 5 1 msec;
#X text 986 -227 *;
#X text 1091 -374 Blue;
#X floatatom 1132 -393 5 0 0 0 - - -;
#X obj 1261 -338 t b f;
#X obj 1215 -371 delay 5 1 msec;
#X obj 1153 -318 t b f;
#X obj 1151 -285 expr $f1+1;
#X floatatom 1086 -241 5 0 0 0 - - -;
#X obj 1187 -210 t b f;
#X obj 1146 -243 delay 5 1 msec;
#X text 1083 -271 *;
#X text 1009 -379 Yellow;
#X text 768 -368 Red x2;
#X floatatom 1456 -397 5 0 0 0 - - -;
#X obj 1340 -328 t b f;
#X obj 1352 -361 delay 5 1 msec;
#X obj 1450 -317 t b f;
#X obj 1453 -284 expr $f1+1;
#X floatatom 1521 -243 5 0 0 0 - - -;
#X obj 1339 -211 t b f;
#X obj 1351 -244 delay 5 1 msec;
#X text 1531 -269 *;
#X floatatom 1697 -408 5 0 0 0 - - -;
#X obj 1581 -339 t b f;
#X obj 1593 -372 delay 5 1 msec;
#X obj 1691 -328 t b f;
#X obj 1694 -295 expr $f1+1;
#X floatatom 1711 -210 5 0 0 0 - - -;
#X obj 1580 -222 t b f;
#X obj 1592 -255 delay 5 1 msec;
#X text 1721 -236 *;
#X floatatom 1867 -402 5 0 0 0 - - -;
#X obj 1996 -347 t b f;
#X obj 1950 -380 delay 5 1 msec;
#X obj 1888 -327 t b f;
#X obj 1886 -294 expr $f1+1;
#X floatatom 1821 -250 5 0 0 0 - - -;
#X obj 1922 -219 t b f;
#X obj 1881 -252 delay 5 1 msec;
#X text 1818 -280 *;
#X text 1744 -388 Yellow;
#X obj 1585 -438 notein 34;
#X floatatom 2180 -416 5 0 0 0 - - -;
#X obj 2064 -347 t b f;
#X obj 2076 -380 delay 5 1 msec;
#X obj 2174 -336 t b f;
#X obj 2177 -303 expr $f1+1;
#X floatatom 2245 -262 5 0 0 0 - - -;
#X obj 2063 -230 t b f;
#X obj 2075 -263 delay 5 1 msec;
#X text 2255 -288 *;
#X floatatom 2421 -427 5 0 0 0 - - -;
#X obj 2305 -358 t b f;
#X obj 2317 -391 delay 5 1 msec;
#X obj 2415 -347 t b f;
#X obj 2418 -314 expr $f1+1;
#X floatatom 2435 -229 5 0 0 0 - - -;
#X obj 2304 -241 t b f;
#X obj 2316 -274 delay 5 1 msec;
#X text 2445 -255 *;
#X text 2550 -402 Blue;
#X floatatom 2591 -421 5 0 0 0 - - -;
#X obj 2720 -366 t b f;
#X obj 2674 -399 delay 5 1 msec;
#X obj 2612 -346 t b f;
#X obj 2610 -313 expr $f1+1;
#X floatatom 2545 -269 5 0 0 0 - - -;
#X obj 2646 -238 t b f;
#X obj 2605 -271 delay 5 1 msec;
#X text 2542 -299 *;
#X text 2468 -407 Yellow;
#X obj 2203 -370 select 80 92;
#X obj 2444 -381 select 85;
#X obj 2587 -374 select 89;
#X text 2227 -396 Red x2;
#X obj 2309 -457 notein 49;
#X text 1503 -377 Red;
#X text 1823 -380 Blue x2;
#X text 1030 -8 Red;
#X text 1173 -9 Yellow;
#X text 1331 -18 Blue;
#X obj 780 545 100;
#X floatatom 818 434 5 0 0 0 - - -;
#X obj 806 409 f;
#X obj 814 467 select 1;
#X obj 809 518 t b f;
#X obj 884 536 100;
#X floatatom 922 425 5 0 0 0 - - -;
#X obj 910 400 f;
#X obj 918 458 select 1;
#X obj 913 509 t b f;
#X obj 1000 535 100;
#X floatatom 1038 424 5 0 0 0 - - -;
#X obj 1026 399 f;
#X obj 1034 457 select 1;
#X obj 1029 508 t b f;
#X obj 1145 534 100;
#X floatatom 1183 423 5 0 0 0 - - -;
#X obj 1171 398 f;
#X obj 1179 456 select 1;
#X obj 1174 507 t b f;
#X obj 1326 541 100;
#X floatatom 1364 430 5 0 0 0 - - -;
#X obj 1352 405 f;
#X obj 1360 463 select 1;
#X obj 1355 514 t b f;
#X obj 1478 542 100;
#X floatatom 1516 431 5 0 0 0 - - -;
#X obj 1504 406 f;
#X obj 1512 464 select 1;
#X obj 1507 515 t b f;
#X obj 863 832 100;
#X floatatom 901 721 5 0 0 0 - - -;
#X obj 889 696 f;
#X obj 897 754 select 1;
#X obj 892 805 t b f;
#X obj 1081 825 100;
#X floatatom 1119 714 5 0 0 0 - - -;
#X obj 1107 689 f;
#X obj 1115 747 select 1;
#X obj 1110 798 t b f;
#X obj 1335 832 100;
#X floatatom 1373 721 5 0 0 0 - - -;
#X obj 1361 696 f;
#X obj 1369 754 select 1;
#X obj 1364 805 t b f;
#X obj 775 1078 100;
#X floatatom 813 967 5 0 0 0 - - -;
#X obj 801 942 f;
#X obj 809 1000 select 1;
#X obj 804 1051 t b f;
#X obj 879 1069 100;
#X floatatom 917 958 5 0 0 0 - - -;
#X obj 905 933 f;
#X obj 913 991 select 1;
#X obj 908 1042 t b f;
#X obj 995 1068 100;
#X floatatom 1033 957 5 0 0 0 - - -;
#X obj 1021 932 f;
#X obj 1029 990 select 1;
#X obj 1024 1041 t b f;
#X obj 1140 1067 100;
#X floatatom 1178 956 5 0 0 0 - - -;
#X obj 1166 931 f;
#X obj 1174 989 select 1;
#X obj 1169 1040 t b f;
#X obj 1321 1074 100;
#X floatatom 1359 963 5 0 0 0 - - -;
#X obj 1347 938 f;
#X obj 1355 996 select 1;
#X obj 1350 1047 t b f;
#X obj 1473 1075 100;
#X floatatom 1511 964 5 0 0 0 - - -;
#X obj 1499 939 f;
#X obj 1507 997 select 1;
#X obj 1502 1048 t b f;
#X obj 809 583 noteout 6;
#X obj 913 574 noteout 6;
#X obj 1029 573 noteout 6;
#X obj 1174 572 noteout 6;
#X obj 1355 579 noteout 6;
#X obj 1507 580 noteout 6;
#X obj 892 870 noteout 6;
#X obj 1110 863 noteout 6;
#X obj 1364 870 noteout 6;
#X obj 804 1116 noteout 6;
#X obj 908 1107 noteout 6;
#X obj 1024 1106 noteout 6;
#X obj 1169 1105 noteout 6;
#X obj 1350 1112 noteout 6;
#X obj 1502 1113 noteout 6;
#X obj 962 54 f;
#X obj 998 35 t b f;
#X obj 1045 35 t b f;
#X obj 1091 34 t b f;
#X obj 1137 34 t b f;
#X obj 1180 34 t b f;
#X obj 1225 33 t b f;
#X obj 1267 33 t b f;
#X obj 1314 33 t b f;
#X obj 1360 33 t b f;
#X obj 1406 32 t b f;
#X obj 1024 83 expr $f1==1 && $f2==1 \; $f1==1 && $f3==1 \; $f1==1
&& $f4==1 \; $f2==1 && $f3==1 \; $f2==1 && $f4==1 \; $f3==1 && $f4==1
\; $f5==1 && $f6==1 \; $f5==1 && $f7==1 \; $f6==1 && $f7==1 \; $f8==1
&& $f9==1 \; $f8==1 && $f10==1 \; $f8==1 && $f11==1 \; $f9==1 && $f10==1
\; $f9==1 && $f11==1 \; $f10==1 && $f11==1 \;, f 48;
#X obj 218 -180 print x1;
#X obj 133 -164 print x2;
#X obj 858 110 print x3;
#X obj 744 -141 print xx2;
#X obj 1479 -351 select 85;
#X obj 1720 -362 select 89;
#X obj 1863 -355 select 80 92;
#X obj 729 -182 print xx1;
#X obj 725 -344 select 85;
#X obj 985 -353 select 89;
#X obj 1128 -346 select 92;
#X obj 761 -320 select 97;
#X obj 289 8 notein;
#X floatatom 254 43 5 0 0 0 - - -;
#X floatatom 327 40 5 0 0 0 - - -;
#X text 265 -18 test;
#X obj 835 241 print y1;
#X connect 4 0 8 0;
#X connect 4 0 11 0;
#X connect 4 0 10 0;
#X connect 4 0 13 0;
#X connect 5 0 28 0;
#X connect 5 0 37 0;
#X connect 5 0 47 0;
#X connect 5 0 30 0;
#X connect 5 0 39 0;
#X connect 5 0 49 0;
#X connect 8 0 14 0;
#X connect 9 1 8 0;
#X connect 10 0 9 0;
#X connect 11 0 16 0;
#X connect 12 1 11 0;
#X connect 13 0 12 0;
#X connect 14 0 15 0;
#X connect 15 0 18 0;
#X connect 15 0 23 0;
#X connect 15 1 18 0;
#X connect 16 0 17 0;
#X connect 17 0 19 0;
#X connect 17 0 25 0;
#X connect 17 1 19 0;
#X connect 18 0 20 0;
#X connect 18 0 228 0;
#X connect 19 0 21 0;
#X connect 20 0 216 0;
#X connect 20 0 229 0;
#X connect 21 0 223 0;
#X connect 22 1 20 0;
#X connect 23 0 22 0;
#X connect 24 1 21 0;
#X connect 25 0 24 0;
#X connect 28 0 236 0;
#X connect 28 0 239 0;
#X connect 29 1 28 0;
#X connect 30 0 29 0;
#X connect 31 0 32 0;
#X connect 31 0 35 0;
#X connect 31 1 32 0;
#X connect 32 0 33 0;
#X connect 32 0 235 0;
#X connect 33 0 217 0;
#X connect 33 0 231 0;
#X connect 34 1 33 0;
#X connect 35 0 34 0;
#X connect 37 0 237 0;
#X connect 38 1 37 0;
#X connect 39 0 38 0;
#X connect 40 0 41 0;
#X connect 40 0 44 0;
#X connect 40 1 41 0;
#X connect 41 0 42 0;
#X connect 42 0 220 0;
#X connect 43 1 42 0;
#X connect 44 0 43 0;
#X connect 47 0 238 0;
#X connect 48 1 47 0;
#X connect 49 0 48 0;
#X connect 50 0 51 0;
#X connect 50 0 54 0;
#X connect 50 1 51 0;
#X connect 51 0 52 0;
#X connect 52 0 224 0;
#X connect 53 1 52 0;
#X connect 54 0 53 0;
#X connect 58 0 232 0;
#X connect 59 1 58 0;
#X connect 60 0 59 0;
#X connect 61 0 62 0;
#X connect 61 0 65 0;
#X connect 61 1 62 0;
#X connect 62 0 63 0;
#X connect 63 0 218 0;
#X connect 64 1 63 0;
#X connect 65 0 64 0;
#X connect 67 0 233 0;
#X connect 68 1 67 0;
#X connect 69 0 68 0;
#X connect 70 0 71 0;
#X connect 70 0 74 0;
#X connect 70 1 71 0;
#X connect 71 0 72 0;
#X connect 72 0 221 0;
#X connect 73 1 72 0;
#X connect 74 0 73 0;
#X connect 76 0 234 0;
#X connect 77 1 76 0;
#X connect 78 0 77 0;
#X connect 79 0 80 0;
#X connect 79 0 83 0;
#X connect 79 1 80 0;
#X connect 80 0 81 0;
#X connect 81 0 225 0;
#X connect 82 1 81 0;
#X connect 83 0 82 0;
#X connect 86 0 58 0;
#X connect 86 0 67 0;
#X connect 86 0 76 0;
#X connect 86 0 60 0;
#X connect 86 0 69 0;
#X connect 86 0 78 0;
#X connect 87 0 116 0;
#X connect 88 1 87 0;
#X connect 89 0 88 0;
#X connect 90 0 91 0;
#X connect 90 0 94 0;
#X connect 90 1 91 0;
#X connect 91 0 92 0;
#X connect 92 0 219 0;
#X connect 93 1 92 0;
#X connect 94 0 93 0;
#X connect 96 0 117 0;
#X connect 97 1 96 0;
#X connect 98 0 97 0;
#X connect 99 0 100 0;
#X connect 99 0 103 0;
#X connect 99 1 100 0;
#X connect 100 0 101 0;
#X connect 101 0 222 0;
#X connect 102 1 101 0;
#X connect 103 0 102 0;
#X connect 106 0 118 0;
#X connect 107 1 106 0;
#X connect 108 0 107 0;
#X connect 109 0 110 0;
#X connect 109 0 113 0;
#X connect 109 1 110 0;
#X connect 110 0 111 0;
#X connect 111 0 226 0;
#X connect 112 1 111 0;
#X connect 113 0 112 0;
#X connect 116 0 90 0;
#X connect 116 1 90 0;
#X connect 117 0 99 0;
#X connect 118 0 109 0;
#X connect 120 0 87 0;
#X connect 120 0 96 0;
#X connect 120 0 106 0;
#X connect 120 0 98 0;
#X connect 120 0 89 0;
#X connect 120 0 108 0;
#X connect 126 0 201 0;
#X connect 127 0 129 0;
#X connect 128 0 127 0;
#X connect 129 0 130 0;
#X connect 130 0 126 0;
#X connect 131 0 202 0;
#X connect 132 0 134 0;
#X connect 133 0 132 0;
#X connect 134 0 135 0;
#X connect 135 0 131 0;
#X connect 136 0 203 0;
#X connect 137 0 139 0;
#X connect 138 0 137 0;
#X connect 139 0 140 0;
#X connect 140 0 136 0;
#X connect 141 0 204 0;
#X connect 142 0 144 0;
#X connect 143 0 142 0;
#X connect 144 0 145 0;
#X connect 145 0 141 0;
#X connect 146 0 205 0;
#X connect 147 0 149 0;
#X connect 148 0 147 0;
#X connect 149 0 150 0;
#X connect 150 0 146 0;
#X connect 151 0 206 0;
#X connect 152 0 154 0;
#X connect 153 0 152 0;
#X connect 154 0 155 0;
#X connect 155 0 151 0;
#X connect 156 0 207 0;
#X connect 157 0 159 0;
#X connect 158 0 157 0;
#X connect 159 0 160 0;
#X connect 160 0 156 0;
#X connect 161 0 208 0;
#X connect 162 0 164 0;
#X connect 163 0 162 0;
#X connect 164 0 165 0;
#X connect 165 0 161 0;
#X connect 166 0 209 0;
#X connect 167 0 169 0;
#X connect 168 0 167 0;
#X connect 169 0 170 0;
#X connect 170 0 166 0;
#X connect 171 0 210 0;
#X connect 172 0 174 0;
#X connect 173 0 172 0;
#X connect 174 0 175 0;
#X connect 175 0 171 0;
#X connect 176 0 211 0;
#X connect 177 0 179 0;
#X connect 178 0 177 0;
#X connect 179 0 180 0;
#X connect 180 0 176 0;
#X connect 181 0 212 0;
#X connect 182 0 184 0;
#X connect 183 0 182 0;
#X connect 184 0 185 0;
#X connect 185 0 181 0;
#X connect 186 0 213 0;
#X connect 187 0 189 0;
#X connect 188 0 187 0;
#X connect 189 0 190 0;
#X connect 190 0 186 0;
#X connect 191 0 214 0;
#X connect 192 0 194 0;
#X connect 193 0 192 0;
#X connect 194 0 195 0;
#X connect 195 0 191 0;
#X connect 196 0 215 0;
#X connect 197 0 199 0;
#X connect 198 0 197 0;
#X connect 199 0 200 0;
#X connect 200 0 196 0;
#X connect 216 0 227 0;
#X connect 216 0 230 0;
#X connect 217 0 216 0;
#X connect 217 1 227 1;
#X connect 218 0 216 0;
#X connect 218 1 227 2;
#X connect 219 0 216 0;
#X connect 219 1 227 3;
#X connect 220 0 216 0;
#X connect 220 1 227 4;
#X connect 221 0 216 0;
#X connect 221 1 227 5;
#X connect 222 0 216 0;
#X connect 222 1 227 6;
#X connect 223 0 216 0;
#X connect 223 1 227 7;
#X connect 224 0 216 0;
#X connect 224 1 227 8;
#X connect 225 0 216 0;
#X connect 225 1 227 9;
#X connect 226 0 216 0;
#X connect 226 1 227 10;
#X connect 227 0 128 0;
#X connect 227 1 133 0;
#X connect 227 1 244 0;
#X connect 227 2 138 0;
#X connect 227 3 143 0;
#X connect 227 4 148 0;
#X connect 227 5 153 0;
#X connect 227 6 158 0;
#X connect 227 7 163 0;
#X connect 227 8 168 0;
#X connect 227 9 173 0;
#X connect 227 10 178 0;
#X connect 227 11 183 0;
#X connect 227 12 188 0;
#X connect 227 13 193 0;
#X connect 227 14 198 0;
#X connect 232 0 61 0;
#X connect 232 1 61 0;
#X connect 233 0 70 0;
#X connect 234 0 79 0;
#X connect 234 1 79 0;
#X connect 236 0 31 0;
#X connect 237 0 40 0;
#X connect 238 0 50 0;
#X connect 239 0 31 0;
#X connect 240 0 241 0;
#X connect 240 2 242 0;
