#N canvas -9 -9 1920 1026 12;
#X floatatom 275 115 5 0 0 0 - - -;
#X floatatom 323 96 5 0 0 0 - - -;
#X floatatom 367 98 5 0 0 0 - - -;
#X floatatom 459 99 5 0 0 0 - - -;
#X floatatom 271 305 5 0 0 0 - - -;
#X floatatom 319 286 5 0 0 0 - - -;
#X floatatom 375 289 5 0 0 0 - - -;
#X floatatom 467 290 5 0 0 0 - - -;
#X obj 409 64 notein 2;
#X obj 259 254 notein 2;
#X obj 405 254 notein 2;
#X text 223 66 80;
#X text 373 59 85, f 3;
#X text 214 246 89;
#X text 370 246 92;
#X text 330 26 Wind Chimes;
#X floatatom 603 109 5 0 0 0 - - -;
#X floatatom 674 101 5 0 0 0 - - -;
#X floatatom 748 102 5 0 0 0 - - -;
#X floatatom 840 103 5 0 0 0 - - -;
#X floatatom 611 297 5 0 0 0 - - -;
#X floatatom 700 290 5 0 0 0 - - -;
#X floatatom 744 292 5 0 0 0 - - -;
#X floatatom 836 293 5 0 0 0 - - -;
#X text 735 35 PVC;
#X text 662 32 Chnl19;
#X obj 644 68 notein 19;
#X obj 790 68 notein 19;
#X obj 640 258 notein 19;
#X obj 786 258 notein 19;
#X floatatom 217 525 5 0 0 0 - - -;
#X obj 218 432 bng 15 250 50 0 empty empty empty 17 7 0 10 -262144
-1 -1;
#X obj 481 427 bng 15 250 50 0 empty empty empty 17 7 0 10 -262144
-1 -1;
#X obj 214 494 timer;
#X floatatom 521 525 5 0 0 0 - - -;
#X obj 519 450 t b b;
#X obj 520 483 timer;
#X obj 62 645 realtime;
#X msg 64 728 0;
#X obj 83 687 expr $f1 > 2000;
#X obj 58 600 bng 15 250 50 0 empty empty empty 17 7 0 10 -262144 -1
-1;
#X obj 91 601 bng 15 250 50 0 empty empty empty 17 7 0 10 -262144 -1
-1;
#X floatatom 14 716 5 0 0 0 - - -;
#X text 43 614 Reset;
#X text 91 628 Event Timer;
#X obj 212 458 t b b;
#X floatatom 1110 129 5 0 0 0 - - -;
#X text 1062 55 Big Blue;
#X floatatom 1022 129 5 0 0 0 - - -;
#X text 1005 40 Chnl20;
#X text 991 99 100;
#X obj 818 424 bng 15 250 50 0 empty empty empty 17 7 0 10 -262144
-1 -1;
#X floatatom 815 508 5 0 0 0 - - -;
#X obj 856 447 t b b;
#X obj 857 480 timer;
#X text 146 534 Tempo;
#X obj 870 598 int;
#X floatatom 821 641 5 0 0 0 - - -;
#X obj 871 564 /;
#X obj 526 608 int;
#X floatatom 572 643 5 0 0 0 - - -;
#X obj 527 574 /;
#X floatatom 185 640 5 0 0 0 - - -;
#X obj 225 612 int;
#X floatatom 271 647 5 0 0 0 - - -;
#X obj 226 578 /;
#X obj 1340 1298 1;
#X obj 1354 1568 2;
#X msg 1340 1322 Fuck this screen resizing thing;
#X obj 828 864 expr $f1==$f2/2 \; $f2==$f1/2 \; $f1==$f2/4 \; $f2==$f1/4
\; $f1==$f2/8 \; $f2==$f1/8 \; $f1==$f2/3 \; $f2==$f1/3 \; $f1==$f2/6
\; $f2==$f1/6 \; $f1==$f2/9 \; $f2==$f1/9 \;;
#X obj 294 1272 noteout 8;
#X obj 263 64 notein 34;
#X obj 1063 89 notein 4;
#X floatatom 796 577 5 0 0 0 - - -;
#X obj 276 1167 select 1;
#X obj 567 1261 noteout 8;
#X obj 564 1195 select 1;
#X obj 838 1300 noteout 8;
#X floatatom 836 1206 5 0 0 0 - - -;
#X obj 836 1232 select 1;
#X obj 255 731 f;
#X obj 375 730 t b f;
#X obj 528 725 f;
#X obj 643 728 t b f;
#X obj 797 723 f;
#X obj 915 743 t b f;
#X text 288 1297 W.c. + PVC;
#X text 578 1321 W.C. + Drums;
#X text 856 1350 PVC + Drums;
#X floatatom 336 1199 5 0 0 0 - - -;
#X floatatom 502 1260 5 0 0 0 - - -;
#X obj 283 864 expr $f1==$f2/2 \; $f2==$f1/2 \; $f1==$f2/4 \; $f2==$f1/4
\; $f1==$f2/8 \; $f2==$f1/8 \; $f1==$f2/3 \; $f2==$f1/3 \; $f1==$f2/6
\; $f2==$f1/6 \; $f1==$f2/9 \; $f2==$f1/9;
#X floatatom 202 1052 5 0 0 0 - - -;
#X floatatom 216 1076 5 0 0 0 - - -;
#X floatatom 236 1099 5 0 0 0 - - -;
#X floatatom 173 1077 5 0 0 0 - - -;
#X floatatom 185 1101 5 0 0 0 - - -;
#X floatatom 200 1124 5 0 0 0 - - -;
#X floatatom 243 1052 5 0 0 0 - - -;
#X floatatom 258 1075 5 0 0 0 - - -;
#X floatatom 279 1098 5 0 0 0 - - -;
#X floatatom 245 1122 5 0 0 0 - - -;
#X floatatom 159 1054 5 0 0 0 - - -;
#X floatatom 290 1124 5 0 0 0 - - -;
#X obj 100 1200 bng 15 250 50 0 empty empty empty 17 7 0 10 -262144
-1 -1;
#X obj 103 1307 expr $f1+1;
#X obj 40 1269 print x1;
#X obj 78 1383 print x2;
#X obj 154 1382 print x3;
#X obj 118 1414 print x4;
#X floatatom 119 1271 5 0 0 0 - - -;
#X obj 105 1340 noteout 8;
#X obj 267 1218 expr $f1+1;
#X obj 561 1228 expr $f1+1;
#X obj 838 1264 expr $f1+1;
#X floatatom 550 1076 5 0 0 0 - - -;
#X floatatom 564 1100 5 0 0 0 - - -;
#X floatatom 584 1123 5 0 0 0 - - -;
#X floatatom 521 1101 5 0 0 0 - - -;
#X floatatom 533 1125 5 0 0 0 - - -;
#X floatatom 548 1148 5 0 0 0 - - -;
#X floatatom 591 1076 5 0 0 0 - - -;
#X floatatom 606 1099 5 0 0 0 - - -;
#X floatatom 627 1122 5 0 0 0 - - -;
#X floatatom 593 1146 5 0 0 0 - - -;
#X floatatom 507 1078 5 0 0 0 - - -;
#X floatatom 638 1148 5 0 0 0 - - -;
#X floatatom 834 1074 5 0 0 0 - - -;
#X floatatom 848 1098 5 0 0 0 - - -;
#X floatatom 868 1121 5 0 0 0 - - -;
#X floatatom 805 1099 5 0 0 0 - - -;
#X floatatom 817 1123 5 0 0 0 - - -;
#X floatatom 832 1146 5 0 0 0 - - -;
#X floatatom 875 1074 5 0 0 0 - - -;
#X floatatom 890 1097 5 0 0 0 - - -;
#X floatatom 911 1120 5 0 0 0 - - -;
#X floatatom 877 1144 5 0 0 0 - - -;
#X floatatom 791 1076 5 0 0 0 - - -;
#X floatatom 922 1146 5 0 0 0 - - -;
#X obj 554 864 expr $f1==$f2/2 \; $f2==$f1/2 \; $f1==$f2/4 \; $f2==$f1/4
\; $f1==$f2/8 \; $f2==$f1/8 \; $f1==$f2/3 \; $f2==$f1/3 \; $f1==$f2/6
\; $f2==$f1/6 \; $f1==$f2/9 \; $f2==$f1/9;
#X obj 248 1411 bng 15 250 50 0 empty empty empty 17 7 0 10 -262144
-1 -1;
#X obj 246 1454 100;
#X obj 250 1500 print z;
#X text 279 1448 number filters bang message;
#X text 665 1388 replace with # add MIDI inst;
#X text 33 376 Issue with operating on Right side \, triggering bangs
only occurs left. fixed*;
#X obj 229 802 expr if ($f1!=0 \, $f1 \, 0.575);
#X obj 505 795 expr if ($f1!=0 \, $f1 \, 0.575);
#X obj 802 801 expr if ($f1!=0 \, $f1 \, 0.575);
#X msg 260 552 10;
#X msg 575 556 10;
#X msg 901 528 10;
#X connect 0 0 31 0;
#X connect 2 0 31 0;
#X connect 4 0 31 0;
#X connect 6 0 31 0;
#X connect 8 0 2 0;
#X connect 8 1 3 0;
#X connect 9 0 4 0;
#X connect 9 1 5 0;
#X connect 10 0 6 0;
#X connect 10 1 7 0;
#X connect 16 0 32 0;
#X connect 18 0 32 0;
#X connect 20 0 32 0;
#X connect 22 0 32 0;
#X connect 26 0 16 0;
#X connect 26 1 17 0;
#X connect 27 0 18 0;
#X connect 27 1 19 0;
#X connect 28 0 20 0;
#X connect 28 1 21 0;
#X connect 29 0 22 0;
#X connect 29 1 23 0;
#X connect 30 0 65 0;
#X connect 31 0 45 0;
#X connect 32 0 35 0;
#X connect 33 0 30 0;
#X connect 34 0 61 0;
#X connect 35 0 36 0;
#X connect 35 0 150 0;
#X connect 35 1 36 1;
#X connect 36 0 34 0;
#X connect 37 0 39 0;
#X connect 39 0 38 0;
#X connect 39 0 42 0;
#X connect 40 0 37 0;
#X connect 41 0 37 1;
#X connect 45 0 33 0;
#X connect 45 0 149 0;
#X connect 45 1 33 1;
#X connect 48 0 51 0;
#X connect 51 0 53 0;
#X connect 52 0 58 0;
#X connect 53 0 54 0;
#X connect 53 0 151 0;
#X connect 53 1 54 1;
#X connect 54 0 52 0;
#X connect 56 0 57 0;
#X connect 57 0 85 0;
#X connect 57 0 83 0;
#X connect 58 0 56 0;
#X connect 59 0 60 0;
#X connect 60 0 81 0;
#X connect 60 0 84 0;
#X connect 61 0 59 0;
#X connect 63 0 64 0;
#X connect 64 0 80 0;
#X connect 64 0 82 0;
#X connect 65 0 63 0;
#X connect 66 0 67 0;
#X connect 66 0 68 0;
#X connect 69 0 137 0;
#X connect 69 1 127 0;
#X connect 69 2 133 0;
#X connect 69 3 130 0;
#X connect 69 4 128 0;
#X connect 69 5 134 0;
#X connect 69 6 131 0;
#X connect 69 7 129 0;
#X connect 69 8 135 0;
#X connect 69 9 132 0;
#X connect 69 10 136 0;
#X connect 69 11 138 0;
#X connect 71 0 0 0;
#X connect 71 1 1 0;
#X connect 72 0 48 0;
#X connect 72 1 46 0;
#X connect 74 0 112 0;
#X connect 74 1 89 0;
#X connect 76 0 113 0;
#X connect 78 0 79 0;
#X connect 79 0 114 0;
#X connect 80 0 146 0;
#X connect 81 0 80 0;
#X connect 81 1 91 1;
#X connect 82 0 147 0;
#X connect 83 0 82 0;
#X connect 83 1 139 1;
#X connect 84 0 148 0;
#X connect 85 0 84 0;
#X connect 85 1 69 1;
#X connect 91 0 102 0;
#X connect 91 1 92 0;
#X connect 91 2 98 0;
#X connect 91 3 95 0;
#X connect 91 4 93 0;
#X connect 91 5 99 0;
#X connect 91 6 96 0;
#X connect 91 7 94 0;
#X connect 91 8 100 0;
#X connect 91 9 97 0;
#X connect 91 10 101 0;
#X connect 91 11 103 0;
#X connect 92 0 74 0;
#X connect 93 0 74 0;
#X connect 94 0 74 0;
#X connect 95 0 74 0;
#X connect 96 0 74 0;
#X connect 97 0 74 0;
#X connect 98 0 74 0;
#X connect 99 0 74 0;
#X connect 100 0 74 0;
#X connect 101 0 74 0;
#X connect 102 0 74 0;
#X connect 103 0 74 0;
#X connect 104 0 105 0;
#X connect 105 0 106 0;
#X connect 105 0 110 0;
#X connect 110 0 107 0;
#X connect 110 0 111 0;
#X connect 112 0 70 0;
#X connect 112 0 108 0;
#X connect 113 0 75 0;
#X connect 114 0 77 0;
#X connect 115 0 76 0;
#X connect 116 0 76 0;
#X connect 117 0 76 0;
#X connect 118 0 76 0;
#X connect 119 0 76 0;
#X connect 120 0 76 0;
#X connect 121 0 76 0;
#X connect 122 0 76 0;
#X connect 123 0 76 0;
#X connect 124 0 76 0;
#X connect 125 0 76 0;
#X connect 126 0 76 0;
#X connect 127 0 78 0;
#X connect 128 0 78 0;
#X connect 129 0 78 0;
#X connect 130 0 78 0;
#X connect 131 0 78 0;
#X connect 132 0 78 0;
#X connect 133 0 78 0;
#X connect 134 0 78 0;
#X connect 135 0 78 0;
#X connect 136 0 78 0;
#X connect 137 0 78 0;
#X connect 138 0 78 0;
#X connect 139 0 125 0;
#X connect 139 1 115 0;
#X connect 139 2 121 0;
#X connect 139 3 118 0;
#X connect 139 4 116 0;
#X connect 139 5 126 0;
#X connect 139 6 119 0;
#X connect 139 7 117 0;
#X connect 139 8 122 0;
#X connect 139 9 123 0;
#X connect 139 10 120 0;
#X connect 139 11 124 0;
#X connect 140 0 141 0;
#X connect 141 0 142 0;
#X connect 146 0 91 0;
#X connect 147 0 139 0;
#X connect 148 0 69 0;
#X connect 149 0 65 1;
#X connect 150 0 61 1;
#X connect 151 0 58 1;
